<svg width="22" height="6" viewBox="0 0 22 6" fill="none" xmlns="http://www.w3.org/2000/svg">
<path d="M2.76936 5.20005C4.08936 5.20005 4.98936 4.24005 4.98936 2.98005C4.98936 1.76005 4.08936 0.800049 2.76936 0.800049C1.40936 0.800049 0.589355 1.76005 0.589355 2.98005C0.589355 4.24005 1.40936 5.20005 2.76936 5.20005Z" fill="white"/>
<path opacity="0.5" d="M10.9764 5.20005C12.2964 5.20005 13.1964 4.24005 13.1964 2.98005C13.1964 1.76005 12.2964 0.800049 10.9764 0.800049C9.61639 0.800049 8.79639 1.76005 8.79639 2.98005C8.79639 4.24005 9.61639 5.20005 10.9764 5.20005Z" fill="white"/>
<path opacity="0.2" d="M19.1834 5.20005C20.5034 5.20005 21.4034 4.24005 21.4034 2.98005C21.4034 1.76005 20.5034 0.800049 19.1834 0.800049C17.8234 0.800049 17.0034 1.76005 17.0034 2.98005C17.0034 4.24005 17.8234 5.20005 19.1834 5.20005Z" fill="white"/>
</svg>
