<svg viewBox="0 0 1510 149" fill="none" xmlns="http://www.w3.org/2000/svg">
    <path d="M120.566 0L1274.43 2.05667e-05L1264.5 21.5658H130.5L120.566 0Z" fill="#6372FF"/>
    <path d="M114.606 2.99152e-05V25.4869H126.526L114.606 2.99152e-05Z" fill="#6372FF"/>
    <path d="M1280.39 5.23517e-05V25.4869L1268.47 25.4869L1280.39 5.23517e-05Z" fill="#6372FF"/>
    <path d="M0 33.329H29.8013V115.671H0V110.77L15.894 106.849V42.1513L0 38.2303V33.329Z" fill="#6372FF"/>
    <path d="M1509.5 33.329H1479.7V115.671H1509.5V110.77L1493.61 106.849V42.1513L1509.5 38.2303V33.329Z" fill="#6372FF"/>
    <path d="M120.566 149L1274.43 149L1264.5 127.434H130.5L120.566 149Z" fill="#6372FF"/>
    <path d="M114.606 149V123.513H126.526L114.606 149Z" fill="#6372FF"/>
    <path d="M1280.39 149V123.513L1268.47 123.513L1280.39 149Z" fill="#6372FF"/>
    <path d="M0 43.5237V48.3335L7.94702 50.111V101.424L0 103.123V107.044V43.5237Z" fill="#6372FF"/>
    <path d="M1509.5 43.5237V47.4449L1501.55 49.2223V101.424L1509.5 103.123V107.044V43.5237Z" fill="#6372FF"/>
    <path fill-rule="evenodd" clip-rule="evenodd" d="M131.5 33.329H1479.7V115.671H131.5V33.329ZM126.526 33.329H29.8013V115.671H126.526V33.329Z" fill="#6372FF"/>
    <path fill-rule="evenodd" clip-rule="evenodd" d="M0 3.73941e-05L114.606 2.99152e-05V25.4869H126.526V33.329H0V3.73941e-05ZM131.5 33.329H1509.5V3.73941e-05L114.606 2.99152e-05L1280.39 5.23517e-05V25.4869L131.5 25.4869V33.329Z" fill="#6372FF"/>
    <path fill-rule="evenodd" clip-rule="evenodd" d="M0 149L114.606 149V123.513H126.526V115.671H0V149ZM131.5 123.513L1280.39 123.513V149H1509.5V115.671H131.5V123.513Z" fill="#6372FF"/>
</svg>
