<svg width="302" height="75" viewBox="0 0 302 75" fill="none" xmlns="http://www.w3.org/2000/svg">
<path fill-rule="evenodd" clip-rule="evenodd" d="M29 1.5058e-05L0 1.88225e-05V16.7763H302V1.88225e-05L29 1.5058e-05ZM29 1.5058e-05L29 12.829L273 12.829V2.63515e-05L29 1.5058e-05ZM5 10.8553V4.93423H24V10.8553L5 10.8553ZM278 4.93423V10.8553L297 10.8553V4.93423H278Z" fill="#2E4258"/>
<path d="M32 0L270 1.03524e-05L265 10.8553H37L32 0Z" fill="#2E4258"/>
<path d="M29 1.5058e-05L29 12.829H35L29 1.5058e-05Z" fill="#2E4258"/>
<path d="M273 2.63515e-05V12.829L267 12.829L273 2.63515e-05Z" fill="#2E4258"/>
<path d="M6 9.86843V5.92107L23 5.92107V9.86843L6 9.86843Z" fill="#2E4258"/>
<path d="M279 9.86843V5.92107L296 5.92107V9.86843L279 9.86843Z" fill="#2E4258"/>
<path d="M0 16.7763H15V58.2237H0V55.7566L8 53.7829V21.2171L0 19.2434V16.7763Z" fill="#2E4258"/>
<path d="M302 16.7763H287V58.2237H302V55.7566L294 53.7829V21.2171L302 19.2434V16.7763Z" fill="#2E4258"/>
<path fill-rule="evenodd" clip-rule="evenodd" d="M29 75L0 75V58.2237H302V75L29 75ZM29 75L29 62.171L273 62.171V75L29 75ZM5 64.1447V70.0658H24V64.1447L5 64.1447ZM277 71.0526V65.1316L296 65.1316V71.0526H277Z" fill="#2E4258"/>
<path d="M32 75L270 75L265 64.1447H37L32 75Z" fill="#2E4258"/>
<path d="M29 75L29 62.171H35L29 75Z" fill="#2E4258"/>
<path d="M273 75V62.171L267 62.171L273 75Z" fill="#2E4258"/>
<path d="M6 65.1316V69.0789L23 69.0789V65.1316L6 65.1316Z" fill="#2E4258"/>
<path d="M278 66.1184V70.0658L295 70.0658V66.1184L278 66.1184Z" fill="#2E4258"/>
<path d="M287 16.7763H15V58.2237H287V16.7763Z" fill="#2E4258"/>
<path d="M6 23.2499L0 21.9079V24.329L4 25.2236V51.0525L0 51.9074V53.8811L6 52.5987V23.2499Z" fill="#2E4258"/>
<path d="M296 23.2499L302 21.9079V23.8816L298 24.7763V51.0525L302 51.9074V53.8811L296 52.5987V23.2499Z" fill="#2E4258"/>
</svg>
