<svg width="414" height="119" viewBox="0 0 414 119" fill="none" xmlns="http://www.w3.org/2000/svg">
<path d="M241.036 101.863L245.233 101.85L245.9 97.5654L241.703 97.5792L241.036 101.863Z" fill="white"/>
<path d="M265.826 101.782L269.881 101.768L266.469 81.9289L260.372 81.949L250.824 101.831L254.738 101.818L256.906 97.1888L265.102 97.1617L265.826 101.782ZM263.017 84.0955L264.609 94.129L258.314 94.1498L263.017 84.0955Z" fill="white"/>
<path d="M270.839 93.7398C270.856 98.7308 273.646 102.096 279.261 102.078C281.983 102.069 284.845 101.35 287.563 100.122L288.952 91.213L280.331 91.2414L279.915 93.9084L284.934 93.8919L284.295 97.9208C282.794 98.5213 281.122 98.8388 279.846 98.843C276.5 98.854 274.847 96.5057 274.836 93.2162C274.823 89.2745 276.935 84.7869 281.189 84.7729C283.457 84.7654 284.993 86.1215 285.199 88.2194L289.026 87.8948C288.9 84.0102 286.283 81.5233 281.689 81.5384C274.911 81.5608 270.817 86.8773 270.839 93.7398Z" fill="white"/>
<path d="M289.377 101.704L304.237 101.655L304.708 98.5341L293.819 98.57L294.68 93.0657L302.904 93.0386L303.376 90.0878L295.152 90.1149L295.958 84.9511L306.45 84.9165L306.922 81.7955L292.459 81.8432L289.377 101.704Z" fill="white"/>
<path d="M322.535 81.744L319.841 99.023L315.928 81.7658L309.264 81.7878L306.181 101.649L309.981 101.636L312.675 84.3288L316.589 101.614L323.224 101.592L326.307 81.7316L322.535 81.744Z" fill="white"/>
<path d="M326.652 93.6125C326.668 98.6318 329.401 101.912 334.591 101.895C339.61 101.879 342.919 99.0887 344.152 94.7174L340.38 94.4747C339.65 96.7741 337.785 98.6519 335.091 98.6608C332.227 98.6702 330.688 96.3499 330.677 93.0888C330.664 89.0903 332.747 84.6029 337.029 84.5887C339.44 84.5808 341.061 86.1068 341.069 88.4605L344.896 88.1076C344.968 83.9954 342.322 81.3385 337.529 81.3543C330.752 81.3766 326.629 86.6932 326.652 93.6125Z" fill="white"/>
<path d="M359.7 81.6214L353.263 90.4053L349.718 81.6544L345.209 81.6692L350.778 93.6463L349.557 101.506L353.527 101.492L354.748 93.6332L364.01 81.6072L359.7 81.6214Z" fill="white"/>
<g filter="url(#filter0_d_168_97)">
<path d="M85.548 30.3997L87.0703 33.4347L62.1439 45.5801L87.0946 57.5342L85.5923 60.5792L54.3398 45.6058L85.548 30.3997Z" fill="white"/>
<path fill-rule="evenodd" clip-rule="evenodd" d="M125.65 30.1L125.754 61.5195L157.085 61.4162L156.981 29.9967L125.65 30.1ZM153.557 33.3937L129.097 33.4744L129.178 58.1224L153.638 58.0418L153.557 33.3937Z" fill="white"/>
<path fill-rule="evenodd" clip-rule="evenodd" d="M332.666 29.4172L332.77 60.8367L364.101 60.7334L363.997 29.3139L332.666 29.4172ZM360.573 32.7109L336.113 32.7916L336.194 57.4397L360.654 57.359L360.573 32.7109Z" fill="white"/>
<path d="M194.736 61.292L198.172 61.2806L198.091 36.7966L210.368 52.9723L222.482 36.7161L222.563 61.2002L225.998 61.1889L225.895 29.7694L223.391 29.7776L210.349 47.278L197.193 29.864L194.633 29.8725L194.736 61.292Z" fill="white"/>
<path fill-rule="evenodd" clip-rule="evenodd" d="M263.719 61.0645L295.049 60.9611L294.946 29.5416L267.051 29.6336L267.007 16.5648L263.572 16.5761L263.719 61.0645ZM291.522 32.9387L267.062 33.0194L267.143 57.6674L291.603 57.5867L291.522 32.9387Z" fill="white"/>
</g>
<defs>
<filter id="filter0_d_168_97" x="43.2895" y="5.51445" width="331.861" height="67.0555" filterUnits="userSpaceOnUse" color-interpolation-filters="sRGB">
<feFlood flood-opacity="0" result="BackgroundImageFix"/>
<feColorMatrix in="SourceAlpha" type="matrix" values="0 0 0 0 0 0 0 0 0 0 0 0 0 0 0 0 0 0 127 0" result="hardAlpha"/>
<feOffset/>
<feGaussianBlur stdDeviation="5.52518"/>
<feColorMatrix type="matrix" values="0 0 0 0 1 0 0 0 0 0.345098 0 0 0 0 0.364706 0 0 0 1 0"/>
<feBlend mode="normal" in2="BackgroundImageFix" result="effect1_dropShadow_168_97"/>
<feBlend mode="normal" in="SourceGraphic" in2="effect1_dropShadow_168_97" result="shape"/>
</filter>
</defs>
</svg>
