<svg width="1920" height="1080" viewBox="0 0 1920 1080" fill="none" xmlns="http://www.w3.org/2000/svg">
<circle cx="1083.1" cy="201.672" r="8.21402" fill="white"/>
<circle cx="1448.62" cy="411.129" r="8.21402" fill="white"/>
<circle cx="1099.53" cy="854.686" r="8.21402" fill="white"/>
<circle cx="1362.38" cy="830.044" r="8.21402" fill="white"/>
<circle cx="508.118" cy="300.24" r="8.21402" fill="white"/>
<circle cx="1202.2" cy="361.845" r="8.21402" fill="white"/>
<circle cx="881.857" cy="337.203" r="8.21402" fill="white"/>
<circle cx="1276.13" cy="546.661" r="8.21402" fill="white"/>
<circle cx="898.284" cy="977.897" r="8.21402" fill="white"/>
<circle cx="1169.35" cy="965.576" r="8.21402" fill="white"/>
<circle cx="319.195" cy="460.413" r="8.21402" fill="white"/>
<circle cx="988.638" cy="522.018" r="8.21402" fill="white"/>
<circle cx="1469.16" cy="127.745" r="8.21402" fill="white"/>
<circle cx="1625.23" cy="250.956" r="8.21402" fill="white"/>
<circle cx="425.978" cy="66.1403" r="8.21402" fill="white"/>
<circle cx="85.0959" cy="472.734" r="8.21402" fill="white"/>
<circle cx="450.62" cy="645.229" r="8.21402" fill="white"/>
<circle cx="356.158" cy="1076.46" r="8.21402" fill="white"/>
<circle cx="179.557" cy="595.945" r="8.21402" fill="white"/>
<circle cx="134.38" cy="780.76" r="8.21402" fill="white"/>
<circle cx="586.152" cy="632.908" r="8.21402" fill="white"/>
<circle cx="922.926" cy="29.1772" r="8.21402" fill="white"/>
<circle cx="1308.99" cy="719.155" r="8.21402" fill="white"/>
<circle cx="1017.39" cy="756.118" r="8.21402" fill="white"/>
<circle cx="1551.3" cy="657.55" r="8.21402" fill="white"/>
<circle cx="1736.11" cy="743.797" r="8.21402" fill="white"/>
<circle cx="487.583" cy="583.624" r="8.21402" fill="white"/>
<circle cx="117.952" cy="534.34" r="8.21402" fill="white"/>
<circle cx="31.7047" cy="928.612" r="8.21402" fill="white"/>
<circle cx="204.199" cy="879.328" r="8.21402" fill="white"/>
<circle cx="228.841" cy="1039.5" r="8.21402" fill="white"/>
<circle cx="676.505" cy="953.255" r="8.21402" fill="white"/>
<circle cx="1124.17" cy="558.982" r="8.21402" fill="white"/>
<circle cx="1851.11" cy="916.292" r="8.21402" fill="white"/>
<circle cx="1682.72" cy="1002.54" r="8.21402" fill="white"/>
<circle cx="1916.82" cy="903.97" r="8.21402" fill="white"/>
<circle cx="951.675" cy="891.65" r="8.21402" fill="white"/>
<circle cx="52.2399" cy="731.476" r="8.21402" fill="white"/>
<circle cx="163.129" cy="1014.86" r="8.21402" fill="white"/>
<circle cx="750.432" cy="1027.18" r="8.21402" fill="white"/>
<circle cx="807.93" cy="1064.14" r="8.21402" fill="white"/>
<circle cx="1333.63" cy="1051.82" r="8.21402" fill="white"/>
<circle cx="1801.83" cy="867.008" r="8.21402" fill="white"/>
<circle cx="1510.23" cy="78.4613" r="8.21402" fill="white"/>
<circle cx="384.907" cy="4.53507" r="8.21402" fill="white"/>
<circle cx="729.897" cy="164.709" r="8.21402" fill="white"/>
<circle cx="405.443" cy="620.587" r="8.21402" fill="white"/>
<circle cx="655.971" cy="608.266" r="8.21402" fill="white"/>
<circle cx="471.155" cy="115.424" r="8.21402" fill="white"/>
<circle cx="623.114" cy="398.808" r="8.21402" fill="white"/>
<circle cx="1185.77" cy="497.376" r="8.21402" fill="white"/>
<circle cx="1251.49" cy="817.723" r="8.21402" fill="white"/>
<circle cx="1699.15" cy="682.192" r="8.21402" fill="white"/>
<circle cx="1530.76" cy="140.066" r="8.21402" fill="white"/>
<circle cx="1378.8" cy="238.635" r="8.21402" fill="white"/>
<circle cx="1046.14" cy="423.45" r="8.21402" fill="white"/>
<circle cx="1575.94" cy="177.029" r="8.21402" fill="white"/>
<circle cx="1834.68" cy="374.166" r="8.21402" fill="white"/>
<circle cx="1592.37" cy="805.402" r="8.21402" fill="white"/>
<circle cx="1777.18" cy="793.081" r="8.21402" fill="white"/>
<circle cx="968.104" cy="275.598" r="8.21402" fill="white"/>
<circle cx="1649.87" cy="324.882" r="8.21402" fill="white"/>
<circle cx="1756.65" cy="287.919" r="8.21402" fill="white"/>
<circle cx="528.654" cy="103.103" r="8.21402" fill="white"/>
<circle cx="265.805" cy="509.697" r="8.21402" fill="white"/>
<circle cx="302.768" cy="842.365" r="8.21402" fill="white"/>
<circle cx="692.934" cy="706.834" r="8.21402" fill="white"/>
<circle cx="1222.74" cy="53.8192" r="8.21402" fill="white"/>
<circle cx="1389.07" cy="244.795" r="2.05351" fill="white"/>
<circle cx="1064.62" cy="454.253" r="2.05351" fill="white"/>
<circle cx="1606.74" cy="244.795" r="2.05351" fill="white"/>
<circle cx="1787.45" cy="318.721" r="2.05351" fill="white"/>
<circle cx="551.242" cy="109.264" r="2.05351" fill="white"/>
<circle cx="288.393" cy="540.5" r="2.05351" fill="white"/>
<circle cx="329.463" cy="885.489" r="2.05351" fill="white"/>
<circle cx="715.522" cy="737.637" r="2.05351" fill="white"/>
<circle cx="1237.11" cy="59.9798" r="2.05351" fill="white"/>
<circle cx="1421.93" cy="318.721" r="2.05351" fill="white"/>
<circle cx="1343.9" cy="540.5" r="2.05351" fill="white"/>
<circle cx="1664.24" cy="294.079" r="2.05351" fill="white"/>
<circle cx="1861.38" cy="454.253" r="2.05351" fill="white"/>
<circle cx="645.703" cy="109.264" r="2.05351" fill="white"/>
<circle cx="247.323" cy="146.227" r="2.05351" fill="white"/>
<circle cx="538.921" cy="195.511" r="2.05351" fill="white"/>
<circle cx="937.301" cy="72.3008" r="2.05351" fill="white"/>
<circle cx="1721.74" cy="47.6587" r="2.05351" fill="white"/>
<circle cx="773.02" cy="540.5" r="2.05351" fill="white"/>
<circle cx="341.784" cy="565.142" r="2.05351" fill="white"/>
<circle cx="366.427" cy="885.489" r="2.05351" fill="white"/>
<circle cx="822.305" cy="749.958" r="2.05351" fill="white"/>
<circle cx="1397.29" cy="109.264" r="2.05351" fill="white"/>
<circle cx="1003.01" cy="244.795" r="2.05351" fill="white"/>
<circle cx="871.589" cy="23.0166" r="2.05351" fill="white"/>
<circle cx="1639.6" cy="380.326" r="2.05351" fill="white"/>
<circle cx="1869.59" cy="589.784" r="2.05351" fill="white"/>
<circle cx="543.028" cy="762.279" r="2.05351" fill="white"/>
<circle cx="189.825" cy="749.958" r="2.05351" fill="white"/>
<circle cx="740.164" cy="478.895" r="2.05351" fill="white"/>
<circle cx="1068.73" cy="146.227" r="2.05351" fill="white"/>
<circle cx="1233.01" cy="294.079" r="2.05351" fill="white"/>
<circle cx="1401.39" cy="762.279" r="2.05351" fill="white"/>
<circle cx="1541.03" cy="651.389" r="2.05351" fill="white"/>
<circle cx="1491.75" cy="454.253" r="2.05351" fill="white"/>
<circle cx="1413.71" cy="565.142" r="2.05351" fill="white"/>
<circle cx="1816.2" cy="454.253" r="2.05351" fill="white"/>
<circle cx="1894.23" cy="540.5" r="2.05351" fill="white"/>
<circle cx="563.563" cy="725.315" r="2.05351" fill="white"/>
<circle cx="218.574" cy="712.994" r="2.05351" fill="white"/>
<circle cx="777.128" cy="417.29" r="2.05351" fill="white"/>
<circle cx="1109.8" cy="72.3008" r="2.05351" fill="white"/>
<circle cx="1261.75" cy="244.795" r="2.05351" fill="white"/>
<circle cx="1426.03" cy="725.315" r="2.05351" fill="white"/>
<circle cx="768.913" cy="183.19" r="2.05351" fill="white"/>
<circle cx="370.533" cy="318.721" r="2.05351" fill="white"/>
<circle cx="284.286" cy="72.3008" r="2.05351" fill="white"/>
<circle cx="1031.76" cy="454.253" r="2.05351" fill="white"/>
<circle cx="1520.5" cy="565.142" r="2.05351" fill="white"/>
<circle cx="1709.42" cy="417.29" r="2.05351" fill="white"/>
<circle cx="1159.08" cy="35.3377" r="2.05351" fill="white"/>
<circle cx="1352.11" cy="651.389" r="2.05351" fill="white"/>
<circle cx="908.552" cy="725.315" r="2.05351" fill="white"/>
<circle cx="5.00907" cy="565.142" r="2.05351" fill="white"/>
<circle cx="255.537" cy="786.921" r="2.05351" fill="white"/>
<circle cx="764.806" cy="897.81" r="2.05351" fill="white"/>
<circle cx="941.408" cy="749.958" r="2.05351" fill="white"/>
<circle cx="395.176" cy="404.969" r="2.05351" fill="white"/>
<circle cx="600.526" cy="1021.02" r="2.05351" fill="white"/>
<circle cx="280.178" cy="183.19" r="2.05351" fill="white"/>
<circle cx="555.348" cy="244.795" r="2.05351" fill="white"/>
<circle cx="978.371" cy="109.264" r="2.05351" fill="white"/>
<circle cx="633.382" cy="244.795" r="2.05351" fill="white"/>
<circle cx="518.386" cy="23.0166" r="2.05351" fill="white"/>
<circle cx="1265.86" cy="380.326" r="2.05351" fill="white"/>
<circle cx="1713.53" cy="503.537" r="2.05351" fill="white"/>
<circle cx="1873.7" cy="318.721" r="2.05351" fill="white"/>
<circle cx="1565.67" cy="589.784" r="2.05351" fill="white"/>
<circle cx="1138.54" cy="651.389" r="2.05351" fill="white"/>
<circle cx="1746.38" cy="72.3008" r="2.05351" fill="white"/>
<circle cx="793.555" cy="565.142" r="2.05351" fill="white"/>
<circle cx="415.711" cy="589.784" r="2.05351" fill="white"/>
<circle cx="440.352" cy="897.81" r="2.05351" fill="white"/>
<circle cx="846.946" cy="774.6" r="2.05351" fill="white"/>
<circle cx="1434.25" cy="109.264" r="2.05351" fill="white"/>
<circle cx="1614.96" cy="540.5" r="2.05351" fill="white"/>
<circle cx="1483.53" cy="589.784" r="2.05351" fill="white"/>
<circle cx="1886.02" cy="515.858" r="2.05351" fill="white"/>
<circle cx="547.135" cy="712.994" r="2.05351" fill="white"/>
<circle cx="214.467" cy="700.673" r="2.05351" fill="white"/>
<circle cx="760.699" cy="392.648" r="2.05351" fill="white"/>
<circle cx="1072.83" cy="59.9798" r="2.05351" fill="white"/>
<circle cx="1241.22" cy="232.474" r="2.05351" fill="white"/>
<circle cx="1409.61" cy="725.315" r="2.05351" fill="white"/>
<circle cx="1602.64" cy="626.747" r="2.05351" fill="white"/>
<circle cx="1495.85" cy="392.648" r="2.05351" fill="white"/>
<circle cx="1902.45" cy="565.142" r="2.05351" fill="white"/>
<circle cx="604.633" cy="737.637" r="2.05351" fill="white"/>
<circle cx="251.429" cy="737.637" r="2.05351" fill="white"/>
<circle cx="797.663" cy="454.253" r="2.05351" fill="white"/>
<circle cx="1142.65" cy="109.264" r="2.05351" fill="white"/>
<circle cx="1294.61" cy="257.116" r="2.05351" fill="white"/>
<circle cx="1458.89" cy="749.958" r="2.05351" fill="white"/>
<circle cx="838.732" cy="244.795" r="2.05351" fill="white"/>
<circle cx="0.902138" cy="59.9798" r="2.05351" fill="white"/>
<circle cx="17.3304" cy="589.784" r="2.05351" fill="white"/>
<circle cx="292.5" cy="220.153" r="2.05351" fill="white"/>
<circle cx="596.419" cy="478.895" r="2.05351" fill="white"/>
<circle cx="1056.4" cy="589.784" r="2.05351" fill="white"/>
<circle cx="1298.72" cy="454.253" r="2.05351" fill="white"/>
<circle cx="703.201" cy="59.9798" r="2.05351" fill="white"/>
<circle cx="855.161" cy="700.673" r="2.05351" fill="white"/>
<circle cx="460.887" cy="749.958" r="2.05351" fill="white"/>
<circle cx="9.116" cy="281.758" r="2.05351" fill="white"/>
<circle cx="567.67" cy="257.116" r="2.05351" fill="white"/>
<circle cx="1007.12" cy="146.227" r="2.05351" fill="white"/>
<circle cx="1766.92" cy="109.264" r="2.05351" fill="white"/>
<circle cx="1430.14" cy="244.795" r="2.05351" fill="white"/>
<circle cx="1348" cy="23.0166" r="2.05351" fill="white"/>
<circle cx="1881.91" cy="651.389" r="2.05351" fill="white"/>
<circle cx="826.411" cy="589.784" r="2.05351" fill="white"/>
<circle cx="497.85" cy="589.784" r="2.05351" fill="white"/>
<circle cx="559.456" cy="897.81" r="2.05351" fill="white"/>
<circle cx="867.481" cy="885.489" r="2.05351" fill="white"/>
<circle cx="1499.96" cy="183.19" r="2.05351" fill="white"/>
<circle cx="1717.63" cy="565.142" r="2.05351" fill="white"/>
<circle cx="1610.85" cy="589.784" r="2.05351" fill="white"/>
<circle cx="1898.34" cy="540.5" r="2.05351" fill="white"/>
<circle cx="571.777" cy="725.315" r="2.05351" fill="white"/>
<circle cx="243.216" cy="725.315" r="2.05351" fill="white"/>
<circle cx="785.342" cy="429.611" r="2.05351" fill="white"/>
<circle cx="1134.44" cy="96.9429" r="2.05351" fill="white"/>
<circle cx="1286.4" cy="244.795" r="2.05351" fill="white"/>
<circle cx="1438.36" cy="737.637" r="2.05351" fill="white"/>
<circle cx="859.267" cy="318.721" r="2.05351" fill="white"/>
<circle cx="13.2234" cy="109.264" r="2.05351" fill="white"/>
<circle cx="66.6145" cy="614.426" r="2.05351" fill="white"/>
<circle cx="345.891" cy="244.795" r="2.05351" fill="white"/>
<circle cx="62.5076" cy="306.4" r="2.05351" fill="white"/>
<circle cx="637.489" cy="294.079" r="2.05351" fill="white"/>
<circle cx="1060.51" cy="183.19" r="2.05351" fill="white"/>
<circle cx="1812.09" cy="121.585" r="2.05351" fill="white"/>
<circle cx="851.054" cy="614.426" r="2.05351" fill="white"/>
<circle cx="70.7215" cy="885.489" r="2.05351" fill="white"/>
<circle cx="575.884" cy="996.378" r="2.05351" fill="white"/>
<circle cx="789.448" cy="823.884" r="2.05351" fill="white"/>
<circle cx="193.932" cy="466.574" r="2.05351" fill="white"/>
<circle cx="374.64" cy="1070.3" r="2.05351" fill="white"/>
<circle cx="641.596" cy="626.747" r="2.05351" fill="white"/>
<circle cx="666.238" cy="910.131" r="2.05351" fill="white"/>
<circle cx="1035.87" cy="885.489" r="2.05351" fill="white"/>
<circle cx="1660.13" cy="244.795" r="2.05351" fill="white"/>
<circle cx="1824.41" cy="589.784" r="2.05351" fill="white"/>
<circle cx="1668.35" cy="626.747" r="2.05351" fill="white"/>
<circle cx="1906.56" cy="565.142" r="2.05351" fill="white"/>
<circle cx="608.74" cy="749.958" r="2.05351" fill="white"/>
<circle cx="276.072" cy="749.958" r="2.05351" fill="white"/>
<circle cx="818.197" cy="454.253" r="2.05351" fill="white"/>
<circle cx="1154.97" cy="109.264" r="2.05351" fill="white"/>
<circle cx="1319.25" cy="294.079" r="2.05351" fill="white"/>
<circle cx="1479.43" cy="749.958" r="2.05351" fill="white"/>
<circle cx="1635.49" cy="712.994" r="2.05351" fill="white"/>
<circle cx="1561.57" cy="454.253" r="2.05351" fill="white"/>
<circle cx="912.659" cy="454.253" r="2.05351" fill="white"/>
<circle cx="21.4373" cy="109.264" r="2.05351" fill="white"/>
<circle cx="152.862" cy="626.747" r="2.05351" fill="white"/>
<circle cx="436.245" cy="244.795" r="2.05351" fill="white"/>
<circle cx="41.9725" cy="417.29" r="2.05351" fill="white"/>
<circle cx="711.415" cy="540.5" r="2.05351" fill="white"/>
<circle cx="1212.47" cy="626.747" r="2.05351" fill="white"/>
<circle cx="1417.82" cy="478.895" r="2.05351" fill="white"/>
<circle cx="830.518" cy="72.3008" r="2.05351" fill="white"/>
<circle cx="1027.66" cy="725.315" r="2.05351" fill="white"/>
<circle cx="612.846" cy="774.6" r="2.05351" fill="white"/>
<circle cx="144.648" cy="318.721" r="2.05351" fill="white"/>
<circle cx="707.308" cy="306.4" r="2.05351" fill="white"/>
<circle cx="1146.76" cy="183.19" r="2.05351" fill="white"/>
<circle cx="1865.49" cy="146.227" r="2.05351" fill="white"/>
<circle cx="933.194" cy="626.747" r="2.05351" fill="white"/>
<circle cx="719.63" cy="725.315" r="2.05351" fill="white"/>
<circle cx="333.57" cy="860.847" r="2.05351" fill="white"/>
<circle cx="239.109" cy="589.784" r="2.05351" fill="white"/>
<circle cx="998.906" cy="947.094" r="2.05351" fill="white"/>
<circle cx="1487.64" cy="1070.3" r="2.05351" fill="white"/>
<circle cx="1672.46" cy="897.81" r="2.05351" fill="white"/>
<circle cx="1113.9" cy="565.142" r="2.05351" fill="white"/>
<circle cx="781.234" cy="947.094" r="2.05351" fill="white"/>
<circle cx="1290.5" cy="897.81" r="2.05351" fill="white"/>
<circle cx="1791.56" cy="294.079" r="2.05351" fill="white"/>
<circle cx="1890.13" cy="589.784" r="2.05351" fill="white"/>
<circle cx="1820.31" cy="725.315" r="2.05351" fill="white"/>
<circle cx="1150.86" cy="528.179" r="2.05351" fill="white"/>
<circle cx="74.8284" cy="183.19" r="2.05351" fill="white"/>
<circle cx="337.678" cy="725.315" r="2.05351" fill="white"/>
<circle cx="834.626" cy="749.958" r="2.05351" fill="white"/>
<circle cx="842.84" cy="996.378" r="2.05351" fill="white"/>
<circle cx="1405.5" cy="897.81" r="2.05351" fill="white"/>
<circle cx="1877.81" cy="454.253" r="2.05351" fill="white"/>
</svg>
