<svg width="1682" height="862" viewBox="0 0 1682 862" fill="none" xmlns="http://www.w3.org/2000/svg">
    <g filter="url(#filter0_b_143_538)">
        <path fill-rule="evenodd" clip-rule="evenodd" d="M415.437 861.5L309.742 861.5L298.616 844.82L276.364 844.82L265.238 861.5L1 861.5L0.99999 744.74L45.5033 733.62L45.5032 106.64L0.999933 95.5202L0.999925 1.00021L1344.44 1.00009L1355.57 23.2401L1383.38 23.2401L1394.51 1.00009L1503.91 1.00008L1511.33 12.1201L1533.58 12.1201L1541 1.00007L1681 1.00006L1681 107.755L1647.62 114.98L1647.62 723.835L1681 731.396L1681 800.34L1608.68 861.5L1274.38 861.5L1274.38 849.7L1257.69 849.7L1257.69 861.5L1246.56 861.5L1246.56 850.38L1126.63 850.38L1126.63 861.5L1115.5 861.5L1115.5 849.7L1104 849.7L1104 861.5L465.503 861.5L454.377 839.26L426.563 839.26L415.437 861.5ZM90.0065 23.2402L28.8145 23.2402L28.8145 73.2802L90.0065 23.2402ZM315.305 14.9002L484.973 14.9002L484.973 20.4602L315.305 20.4602L315.305 14.9002ZM496.099 14.9002L507.225 14.9002L507.225 20.4602L496.099 20.4602L496.099 14.9002ZM529.477 14.9002L518.351 14.9002L518.351 20.4602L529.477 20.4602L529.477 14.9002Z" fill="white" fill-opacity="0.1"/>
        <path fill-rule="evenodd" clip-rule="evenodd" d="M415.437 861.5L309.742 861.5L298.616 844.82L276.364 844.82L265.238 861.5L1 861.5L0.99999 744.74L45.5033 733.62L45.5032 106.64L0.999933 95.5202L0.999925 1.00021L1344.44 1.00009L1355.57 23.2401L1383.38 23.2401L1394.51 1.00009L1503.91 1.00008L1511.33 12.1201L1533.58 12.1201L1541 1.00007L1681 1.00006L1681 107.755L1647.62 114.98L1647.62 723.835L1681 731.396L1681 800.34L1608.68 861.5L1274.38 861.5L1274.38 849.7L1257.69 849.7L1257.69 861.5L1246.56 861.5L1246.56 850.38L1126.63 850.38L1126.63 861.5L1115.5 861.5L1115.5 849.7L1104 849.7L1104 861.5L465.503 861.5L454.377 839.26L426.563 839.26L415.437 861.5ZM90.0065 23.2402L28.8145 23.2402L28.8145 73.2802L90.0065 23.2402ZM315.305 14.9002L484.973 14.9002L484.973 20.4602L315.305 20.4602L315.305 14.9002ZM496.099 14.9002L507.225 14.9002L507.225 20.4602L496.099 20.4602L496.099 14.9002ZM529.477 14.9002L518.351 14.9002L518.351 20.4602L529.477 20.4602L529.477 14.9002Z" stroke="white"/>
    </g>
    <defs>
        <filter id="filter0_b_143_538" x="-49.5001" y="-49.5" width="1781" height="961.5" filterUnits="userSpaceOnUse" color-interpolation-filters="sRGB">
            <feFlood flood-opacity="0" result="BackgroundImageFix"/>
            <feGaussianBlur in="BackgroundImage" stdDeviation="25"/>
            <feComposite in2="SourceAlpha" operator="in" result="effect1_backgroundBlur_143_538"/>
            <feBlend mode="normal" in="SourceGraphic" in2="effect1_backgroundBlur_143_538" result="shape"/>
        </filter>
    </defs>
</svg>
