<svg width="762" height="99" viewBox="0 0 762 99" fill="none" xmlns="http://www.w3.org/2000/svg">
    <path fill-rule="evenodd" clip-rule="evenodd" d="M762 24.1784C758.825 21.596 750.57 83.5731 744.855 78.4083C739.14 73.2436 734.06 68.0788 728.345 65.4964C722.63 62.9141 716.915 62.9141 711.2 61.6229C705.485 60.3317 699.77 57.7493 694.055 59.0405C688.34 60.3317 683.26 65.4964 677.545 68.0788C671.83 70.6612 666.115 70.6612 660.4 64.2052C654.685 57.7493 648.97 44.8374 643.255 42.255C637.54 39.6727 632.46 47.4198 626.745 52.5845C621.03 57.7493 615.315 60.3317 609.6 65.4964C603.885 70.6612 598.17 78.4083 592.455 77.1171C586.74 75.8259 581.66 65.4964 575.945 59.0405C570.23 52.5845 564.515 50.0022 558.8 50.0022C553.085 50.0022 547.37 52.5845 541.655 60.3317C535.94 68.0788 530.86 80.9907 525.145 88.7378C519.43 96.4849 513.715 99.0673 508 97.7761C502.285 96.4849 496.57 91.3202 490.855 90.029C485.14 88.7378 480.06 91.3202 474.345 90.029C468.63 88.7378 462.915 83.5731 457.2 82.2819C451.485 80.9907 445.77 83.5731 440.055 80.9907C434.34 78.4083 429.26 70.6612 423.545 68.0788C417.83 65.4964 412.115 68.0788 406.4 73.2436C400.685 78.4083 394.97 86.1554 389.255 91.3202C383.54 96.4849 378.46 99.0673 372.745 88.7378C367.03 78.4083 361.315 55.1669 355.6 52.5845C349.885 50.0022 344.17 68.0788 338.455 78.4083C332.74 88.7378 327.66 91.3202 321.945 87.4466C316.23 83.5731 310.515 73.2436 304.8 61.6229C299.085 50.0022 293.37 37.0903 287.655 35.7991C281.94 34.5079 276.86 44.8374 271.145 46.1286C265.43 47.4198 259.715 39.6727 254 38.3815C248.285 37.0903 242.57 42.255 236.855 48.711C231.14 55.1669 226.06 62.9141 220.345 70.6612C214.63 78.4083 208.915 86.1554 203.2 83.5731C197.485 80.9907 191.77 68.0788 186.055 60.3317C180.34 52.5845 175.26 50.0022 169.545 51.2934C163.83 52.5845 158.115 57.7493 152.4 56.4581C146.685 55.1669 140.97 47.4198 135.255 43.5462C129.54 39.6727 124.46 39.6727 118.745 40.9639C113.03 42.255 107.315 44.8374 101.6 46.1286C95.885 47.4198 90.17 47.4198 84.455 48.711C78.74 50.0022 73.66 52.5845 67.945 60.3317C62.23 68.0788 56.515 80.9907 50.8 77.1171C45.085 73.2436 39.37 52.5845 33.655 40.9639C27.94 29.3432 22.86 26.7608 17.145 25.4696C11.43 24.1784 5.715 24.1784 2.54 24.1784C5.715 24.1784 11.43 24.1784 17.145 24.1784C22.86 24.1784 27.94 24.1784 33.655 24.1784C39.37 24.1784 45.085 24.1784 50.8 24.1784C56.515 24.1784 62.23 24.1784 67.945 24.1784C73.66 24.1784 78.74 24.1784 84.455 24.1784C90.17 24.1784 95.885 24.1784 101.6 24.1784C107.315 24.1784 113.03 24.1784 118.745 24.1784C124.46 24.1784 129.54 24.1784 135.255 24.1784C140.97 24.1784 146.685 24.1784 152.4 24.1784C158.115 24.1784 163.83 24.1784 169.545 24.1784C175.26 24.1784 180.34 24.1784 186.055 24.1784C191.77 24.1784 197.485 24.1784 203.2 24.1784C208.915 24.1784 214.63 24.1784 220.345 24.1784C226.06 24.1784 231.14 24.1784 236.855 24.1784C242.57 24.1784 248.285 24.1784 254 24.1784C259.715 24.1784 265.43 24.1784 271.145 24.1784C276.86 24.1784 281.94 24.1784 287.655 24.1784C293.37 24.1784 299.085 24.1784 304.8 24.1784C310.515 24.1784 316.23 24.1784 321.945 24.1784C327.66 24.1784 332.74 24.1784 338.455 24.1784C344.17 24.1784 349.885 24.1784 355.6 24.1784C361.315 24.1784 367.03 24.1784 372.745 24.1784C378.46 24.1784 383.54 24.1784 389.255 24.1784C394.97 24.1784 400.685 24.1784 406.4 24.1784C412.115 24.1784 417.83 24.1784 423.545 24.1784C429.26 24.1784 434.34 24.1784 440.055 24.1784C445.77 24.1784 451.485 24.1784 457.2 24.1784C462.915 24.1784 468.63 24.1784 474.345 24.1784C480.06 24.1784 485.14 24.1784 490.855 24.1784C496.57 24.1784 502.285 24.1784 508 24.1784C513.715 24.1784 519.43 24.1784 525.145 24.1784C530.86 24.1784 535.94 24.1784 541.655 24.1784C547.37 24.1784 553.085 24.1784 558.8 24.1784C564.515 24.1784 570.23 24.1784 575.945 24.1784C581.66 24.1784 586.74 24.1784 592.455 24.1784C598.17 24.1784 603.885 24.1784 609.6 24.1784C615.315 24.1784 621.03 24.1784 626.745 24.1784C632.46 24.1784 637.54 24.1784 643.255 24.1784C648.97 24.1784 654.685 24.1784 660.4 24.1784C666.115 24.1784 671.83 24.1784 677.545 24.1784C683.26 24.1784 688.34 24.1784 694.055 24.1784C699.77 24.1784 705.485 24.1784 711.2 24.1784C716.915 24.1784 722.63 24.1784 728.345 24.1784C734.06 24.1784 739.14 24.1784 744.855 24.1784C750.57 24.1784 756.285 24.1784 759.46 24.1784H762Z" fill="#38A7FF"/>
    <path fill-rule="evenodd" clip-rule="evenodd" d="M762 24.1786L758.825 30.6345C755.65 37.0905 749.935 50.0023 743.585 57.7495C737.87 65.4966 731.52 68.079 725.805 69.3701C719.455 70.6613 713.74 70.6613 707.39 65.4966C701.675 60.3318 695.325 50.0023 689.61 53.8759C683.26 57.7495 677.545 75.8261 671.195 86.1556C665.48 96.4851 659.13 99.0675 653.415 92.6115C647.065 86.1556 641.35 70.6613 635 68.079C628.65 65.4966 622.935 75.8261 616.585 73.2437C610.87 70.6613 604.52 55.1671 598.805 46.1288C592.455 37.0905 586.74 34.5081 580.39 38.3816C574.675 42.2552 568.325 52.5847 562.61 55.1671C556.26 57.7495 550.545 52.5847 544.195 48.7111C538.48 44.8376 532.13 42.2552 526.415 39.6728C520.065 37.0905 514.35 34.5081 508 33.2169C501.65 31.9257 495.935 31.9257 489.585 31.9257C483.87 31.9257 477.52 31.9257 471.805 33.2169C465.455 34.5081 459.74 37.0905 453.39 37.0905C447.675 37.0905 441.325 34.5081 435.61 35.7993C429.26 37.0905 423.545 42.2552 417.195 47.42C411.48 52.5847 405.13 57.7495 399.415 59.0406C393.065 60.3318 387.35 57.7495 381 62.9142C374.65 68.079 368.935 80.9908 362.585 78.4085C356.87 75.8261 350.52 57.7495 344.805 53.8759C338.455 50.0023 332.74 60.3318 326.39 59.0406C320.675 57.7495 314.325 44.8376 308.61 46.1288C302.26 47.42 296.545 62.9142 290.195 74.5349C284.48 86.1556 278.13 93.9027 272.415 87.4468C266.065 80.9908 260.35 60.3318 254 59.0406C247.65 57.7495 241.935 75.8261 235.585 78.4085C229.87 80.9908 223.52 68.079 217.805 68.079C211.455 68.079 205.74 80.9908 199.39 77.1173C193.675 73.2437 187.325 52.5847 181.61 44.8376C175.26 37.0905 169.545 42.2552 163.195 43.5464C157.48 44.8376 151.13 42.2552 145.415 42.2552C139.065 42.2552 133.35 44.8376 127 50.0023C120.65 55.1671 114.935 62.9142 108.585 61.623C102.87 60.3318 96.52 50.0023 90.805 44.8376C84.455 39.6728 78.74 39.6728 72.39 43.5464C66.675 47.42 60.325 55.1671 54.61 61.623C48.26 68.079 42.545 73.2437 36.195 70.6613C30.48 68.079 24.13 57.7495 18.415 55.1671C12.065 52.5847 6.35 37.0905 3.175 39.6728L0 24.1786H3.175C6.35 24.1786 12.065 24.1786 18.415 24.1786C24.13 24.1786 30.48 24.1786 36.195 24.1786C42.545 24.1786 48.26 24.1786 54.61 24.1786C60.325 24.1786 66.675 24.1786 72.39 24.1786C78.74 24.1786 84.455 24.1786 90.805 24.1786C96.52 24.1786 102.87 24.1786 108.585 24.1786C114.935 24.1786 120.65 24.1786 127 24.1786C133.35 24.1786 139.065 24.1786 145.415 24.1786C151.13 24.1786 157.48 24.1786 163.195 24.1786C169.545 24.1786 151.765 24.1786 172.402 17.8302C188.277 13.9567 186.69 15.5707 192.405 15.5707C198.755 15.5707 211.455 15.5707 217.805 15.5707C223.52 15.5707 229.87 24.1786 235.585 24.1786C241.935 24.1786 247.65 24.1786 254 24.1786C260.35 24.1786 266.065 24.1786 272.415 24.1786C278.13 24.1786 284.48 24.1786 290.195 24.1786C296.545 24.1786 302.26 24.1786 308.61 24.1786C314.325 24.1786 320.675 24.1786 326.39 24.1786C332.74 24.1786 338.455 24.1786 344.805 24.1786C350.52 24.1786 356.87 24.1786 362.585 24.1786C368.935 24.1786 374.65 24.1786 381 24.1786C387.35 24.1786 386.08 19.0138 392.43 19.0138C398.145 19.0138 419.1 15.5707 424.815 15.5707C431.165 15.5707 439.737 13.9567 444.818 19.0138C450.533 19.0138 447.675 24.1786 453.39 24.1786C459.74 24.1786 474.98 17.8302 481.33 17.8302C487.045 17.8302 493.022 15.5707 504.19 15.5707C510.54 15.5707 520.065 17.8302 526.415 17.8302C532.765 17.8302 532.13 21.7038 538.48 21.7038C544.195 21.7038 538.48 24.1786 544.195 24.1786C550.545 24.1786 556.26 24.1786 562.61 24.1786C568.325 24.1786 574.675 24.1786 580.39 24.1786C586.74 24.1786 592.455 24.1786 598.805 24.1786C604.52 24.1786 610.87 24.1786 616.585 24.1786C622.935 24.1786 628.65 24.1786 635 24.1786C641.35 24.1786 647.065 24.1786 653.415 24.1786C659.13 24.1786 665.48 24.1786 671.195 24.1786C677.545 24.1786 683.26 24.1786 689.61 24.1786C695.325 24.1786 701.675 24.1786 707.39 24.1786C713.74 24.1786 719.455 24.1786 725.805 24.1786C731.52 24.1786 737.87 24.1786 743.585 24.1786C749.935 24.1786 755.65 24.1786 758.825 24.1786H762Z" fill="#80C4FC"/>
    <path fill-rule="evenodd" clip-rule="evenodd" d="M0 24.1785L12.065 17.2922C18.415 16.4314 26.67 12.9882 40.005 12.9882C53.34 12.9882 66.675 14.7098 80.01 13.4186C93.345 12.1274 106.68 7.82348 120.015 6.5323C133.985 5.24111 147.32 6.96269 160.655 6.96269C173.99 6.96269 187.325 5.24111 200.66 4.81071C213.995 4.38032 227.33 5.24111 240.665 4.81071C254 4.38032 267.335 2.65873 280.67 4.38032C294.005 6.1019 307.34 11.2667 320.675 12.5578C334.01 13.849 347.345 11.2667 360.68 8.68428C374.015 6.1019 387.985 3.51953 401.32 2.22834C414.655 0.937149 427.99 0.937149 441.325 2.22834C454.66 3.51953 467.995 6.1019 481.33 6.5323C494.665 6.96269 508 5.24111 521.335 6.96269C534.67 8.68428 548.005 13.849 561.34 14.7098C574.675 15.5706 588.01 12.1274 601.345 10.8363C614.68 9.54507 628.015 10.4059 641.985 11.2667C655.32 12.1274 668.655 12.9882 681.99 10.8363C695.325 8.68428 708.66 3.51953 721.995 0.937149C735.33 -1.64523 745.807 0.937147 750.57 10.8363L762 24.1785H755.015C748.665 24.1785 740.41 28.2673 727.075 28.2673C713.74 28.2673 702.31 30.2041 688.975 30.2041C675.64 30.2041 655.32 39.888 641.985 39.888C628.015 39.888 614.68 24.1785 601.345 24.1785C588.01 24.1785 563.245 32.1409 549.91 32.1409C536.575 32.1409 521.018 18.7986 507.682 18.7986C494.348 18.7986 467.995 30.2041 454.66 30.2041C441.325 30.2041 435.292 17.2922 421.957 17.2922C408.622 17.2922 374.015 35.046 360.68 35.046C347.345 35.046 334.01 24.1785 320.675 24.1785C307.34 24.1785 298.45 45.9135 285.115 45.9135C271.78 45.9135 279.717 24.1785 266.383 24.1785C253.048 24.1785 254 43.3312 240.665 43.3312C227.33 43.3312 213.995 18.7986 200.66 18.7986C187.325 18.7986 173.99 24.1785 160.655 24.1785C147.32 24.1785 133.985 32.1409 120.015 32.1409C106.68 32.1409 93.345 24.1785 80.01 24.1785C66.675 24.1785 43.815 35.046 30.48 35.046C17.145 35.046 13.335 24.1785 6.985 24.1785H0Z" fill="white"/>
</svg>
